<?xml version="1.0" encoding="UTF-8" standalone="no"?>
<!-- Created with Inkscape (http://www.inkscape.org/) -->

<svg
   xmlns:dc="http://purl.org/dc/elements/1.1/"
   xmlns:cc="http://creativecommons.org/ns#"
   xmlns:rdf="http://www.w3.org/1999/02/22-rdf-syntax-ns#"
   xmlns:svg="http://www.w3.org/2000/svg"
   xmlns="http://www.w3.org/2000/svg"
   xmlns:sodipodi="http://sodipodi.sourceforge.net/DTD/sodipodi-0.dtd"
   xmlns:inkscape="http://www.inkscape.org/namespaces/inkscape"
   width="744.09448"
   height="1052.3622"
   id="svg2"
   version="1.1"
   inkscape:version="0.48.4 r9939"
   sodipodi:docname="rear-garden.svg">
  <defs
     id="defs4" />
  <sodipodi:namedview
     id="base"
     pagecolor="#ffffff"
     bordercolor="#666666"
     borderopacity="1.0"
     inkscape:pageopacity="0.0"
     inkscape:pageshadow="2"
     inkscape:zoom="0.83716425"
     inkscape:cx="372.04724"
     inkscape:cy="526.18109"
     inkscape:document-units="mm"
     inkscape:current-layer="layer1"
     showgrid="false"
     inkscape:window-width="1352"
     inkscape:window-height="1028"
     inkscape:window-x="487"
     inkscape:window-y="24"
     inkscape:window-maximized="0"
     units="mm" />
  <metadata
     id="metadata7">
    <rdf:RDF>
      <cc:Work
         rdf:about="">
        <dc:format>image/svg+xml</dc:format>
        <dc:type
           rdf:resource="http://purl.org/dc/dcmitype/StillImage" />
        <dc:title />
      </cc:Work>
    </rdf:RDF>
  </metadata>
  <g
     inkscape:label="structure"
     inkscape:groupmode="layer"
     id="layer1"
     transform="translate(0,-2.5390623e-6)">
    <path
       style="fill:#a3ff9b;fill-opacity:1;stroke:none"
       d="m 177.16485,77.952802 322.44094,0 0,602.362678 -322.44094,318.8971 z"
       id="rect2985"
       inkscape:connector-curvature="0"
       sodipodi:nodetypes="ccccc" />
    <rect
       style="fill:#b4330d;fill-opacity:1;stroke:none"
       id="rect3756"
       width="187.79527"
       height="66.892487"
       x="177.16478"
       y="11.060217" />
    <rect
       style="fill:#cccccc;fill-opacity:1;stroke:none"
       id="rect3758"
       width="322.44095"
       height="82.204727"
       x="177.16484"
       y="77.952797" />
    <rect
       y="160.15753"
       x="177.16484"
       height="82.204727"
       width="193.46457"
       id="rect3760"
       style="fill:#f3a876;fill-opacity:1;stroke:none" />
    <text
       xml:space="preserve"
       style="font-size:40px;font-style:normal;font-weight:normal;line-height:125%;letter-spacing:0px;word-spacing:0px;fill:#000000;fill-opacity:1;stroke:none;font-family:Sans"
       x="562.99103"
       y="951.55743"
       id="text3781"
       sodipodi:linespacing="125%"><tspan
         sodipodi:role="line"
         id="tspan3783"
         x="562.99103"
         y="951.55743">1:100</tspan></text>
    <rect
       style="fill:#cccccc;fill-opacity:1;stroke:none"
       id="rect3785"
       width="193.46457"
       height="21.259842"
       x="177.16484"
       y="242.36224" />
    <path
       style="fill:#b3b3b3;fill-opacity:1;stroke:none"
       d="m 177.16485,160.15753 21.25984,0 c 0,0 1.08394,35.31666 6.09996,52.04963 3.2305,10.77664 15.15977,30.1551 15.15977,30.1551 l -42.51957,0 z"
       id="rect3793"
       inkscape:connector-curvature="0"
       sodipodi:nodetypes="ccaccc" />
    <path
       style="fill:#f3a876;fill-opacity:1;stroke:none"
       d="m 478.6875,89.636785 0,70.531255 -67.28125,0 0,21.25 88.1875,0 0,-21.25 0,-70.531255 -20.90625,0 z"
       id="rect3796"
       inkscape:connector-curvature="0" />
    <rect
       y="77.952698"
       x="295.16486"
       height="17.007874"
       width="31.889763"
       id="rect3065"
       style="fill:#b3b3b3;fill-opacity:1;stroke:none" />
    <rect
       style="fill:#999999;fill-opacity:1;stroke:none"
       id="rect3067"
       width="31.889763"
       height="8.5039368"
       x="295.16486"
       y="77.952698" />
    <rect
       style="fill:#800000;fill-opacity:1;stroke:none"
       id="rect3069"
       width="170.07874"
       height="2.8346457"
       x="200.55067"
       y="160.15753" />
    <rect
       style="fill:none;stroke:#000000;stroke-width:0.99921262;stroke-miterlimit:4;stroke-opacity:1;stroke-dasharray:none"
       id="rect3077"
       width="68.740158"
       height="43.582676"
       x="301.88925"
       y="198.77959" />
    <path
       inkscape:label="hypericum"
       transform="matrix(0.39551068,0,0,0.39551068,100.50149,147.22499)"
       d="m 303.40522,357.15811 a 53.752892,53.752892 0 1 1 -107.50578,0 53.752892,53.752892 0 1 1 107.50578,0 z"
       sodipodi:ry="53.752892"
       sodipodi:rx="53.752892"
       sodipodi:cy="357.15811"
       sodipodi:cx="249.65233"
       id="path3091"
       style="fill:#e5e55c;fill-opacity:1;stroke:none;display:inline"
       sodipodi:type="arc" />
    <path
       sodipodi:type="arc"
       style="opacity:0.61316869;fill:#d2ea5d;fill-opacity:1;stroke:none"
       id="path3789"
       sodipodi:cx="403.74396"
       sodipodi:cy="672.50842"
       sodipodi:rx="118.25636"
       sodipodi:ry="118.25636"
       d="m 522.00032,672.50842 a 118.25636,118.25636 0 1 1 -236.51273,0 118.25636,118.25636 0 1 1 236.51273,0 z"
       transform="translate(8.7390094,1.9229829)"
       inkscape:label="prunus" />
    <path
       sodipodi:type="arc"
       style="fill:#eda29a;fill-opacity:1;stroke:none;display:inline"
       id="path3780"
       sodipodi:cx="249.65233"
       sodipodi:cy="357.15811"
       sodipodi:rx="53.752892"
       sodipodi:ry="53.752892"
       d="m 303.40522,357.15811 a 53.752892,53.752892 0 1 1 -107.50578,0 53.752892,53.752892 0 1 1 107.50578,0 z"
       transform="matrix(0.39551068,0,0,0.39551068,500.09181,332.89629)"
       inkscape:label="acer" />
    <path
       sodipodi:type="arc"
       style="fill:#76d776;fill-opacity:1;stroke:none;display:inline"
       id="path3059"
       sodipodi:cx="249.65233"
       sodipodi:cy="357.15811"
       sodipodi:rx="53.752892"
       sodipodi:ry="53.752892"
       d="m 303.40522,357.15811 a 53.752892,53.752892 0 1 1 -107.50578,0 53.752892,53.752892 0 1 1 107.50578,0 z"
       transform="matrix(0.98877669,0,0,0.98877669,-20.497026,8.267688)"
       inkscape:label="apple tree" />
    <rect
       style="fill:#cccccc;fill-opacity:1;stroke:none;display:inline"
       id="rect3798"
       width="90.354332"
       height="112.67716"
       x="406.10089"
       y="296.53589" />
    <rect
       style="fill:#c87137;fill-opacity:1;stroke:none"
       id="rect3150"
       width="85.039368"
       height="63.070866"
       x="199.13387"
       y="737.71649" />
    <text
       xml:space="preserve"
       style="font-size:24px;font-style:normal;font-variant:normal;font-weight:normal;font-stretch:normal;text-align:start;line-height:125%;letter-spacing:0px;word-spacing:0px;writing-mode:lr;text-anchor:start;fill:#000000;fill-opacity:1;stroke:none;font-family:Courier 10 Pitch;-inkscape-font-specification:Courier 10 Pitch"
       x="572.16968"
       y="74.05954"
       id="text3920"
       sodipodi:linespacing="125%"
       transform="translate(0,2.5390623e-6)"><tspan
         sodipodi:role="line"
         id="tspan3922"
         x="572.16968"
         y="74.05954">y=275</tspan></text>
    <path
       transform="matrix(1.0105081,0,0,1.0105081,-230.82118,7.826346)"
       d="m 512.44424,672.50842 a 108.70029,108.70029 0 1 1 -217.40057,0 108.70029,108.70029 0 1 1 217.40057,0 z"
       sodipodi:ry="108.70029"
       sodipodi:rx="108.70029"
       sodipodi:cy="672.50842"
       sodipodi:cx="403.74396"
       id="path3791"
       style="opacity:0.61316869;fill:#ebed5c;fill-opacity:1;stroke:none"
       sodipodi:type="arc"
       inkscape:label="salix" />
  </g>
  <g
     inkscape:groupmode="layer"
     id="layer3"
     inkscape:label="Movable"
     style="display:inline">
    <path
       sodipodi:type="arc"
       style="fill:#333333;fill-opacity:1;stroke:none;display:inline"
       id="path3083"
       sodipodi:cx="249.65233"
       sodipodi:cy="357.15811"
       sodipodi:rx="53.752892"
       sodipodi:ry="53.752892"
       d="m 303.40522,357.15811 a 53.752892,53.752892 0 1 1 -107.50578,0 53.752892,53.752892 0 1 1 107.50578,0 z"
       transform="matrix(0.23071456,0,0,0.26367378,424.24507,126.36317)"
       inkscape:label="apple tree">
      <title
         id="title3085">apple tree</title>
    </path>
    <path
       inkscape:label="apple tree"
       transform="matrix(0.26367378,0,0,0.26367378,126.87066,822.62055)"
       d="m 303.40522,357.15811 a 53.752892,53.752892 0 1 1 -107.50578,0 53.752892,53.752892 0 1 1 107.50578,0 z"
       sodipodi:ry="53.752892"
       sodipodi:rx="53.752892"
       sodipodi:cy="357.15811"
       sodipodi:cx="249.65233"
       id="path3079"
       style="fill:#333333;fill-opacity:1;stroke:none;display:inline"
       sodipodi:type="arc">
      <title
         id="title3081">apple tree</title>
    </path>
    <rect
       style="fill:#b3b3b3;fill-opacity:1;stroke:none"
       id="rect3019"
       width="21.259842"
       height="21.259842"
       x="381.36957"
       y="341.70825" />
    <rect
       y="319.70825"
       x="381.36957"
       height="21.259842"
       width="21.259842"
       id="rect3017"
       style="fill:#b3b3b3;fill-opacity:1;stroke:none" />
    <rect
       y="363.70825"
       x="381.36957"
       height="21.259842"
       width="21.259842"
       id="rect3021"
       style="fill:#b3b3b3;fill-opacity:1;stroke:none" />
    <rect
       style="fill:#b3b3b3;fill-opacity:1;stroke:none"
       id="rect3023"
       width="21.259842"
       height="21.259842"
       x="381.36957"
       y="385.70825" />
    <rect
       transform="translate(0,-2.5390623e-6)"
       y="297.70825"
       x="421.36957"
       height="21.259842"
       width="21.259842"
       id="rect3025"
       style="fill:#b3b3b3;fill-opacity:1;stroke:none" />
    <rect
       transform="translate(0,-2.5390623e-6)"
       y="297.70825"
       x="465.36957"
       height="21.259842"
       width="21.259842"
       id="rect3029"
       style="fill:#b3b3b3;fill-opacity:1;stroke:none" />
    <rect
       transform="translate(0,-2.5390623e-6)"
       style="fill:#b3b3b3;fill-opacity:1;stroke:none"
       id="rect3027"
       width="21.259842"
       height="21.259842"
       x="443.36957"
       y="297.70825" />
  </g>
  <g
     inkscape:groupmode="layer"
     id="layer2"
     inkscape:label="proposed"
     style="display:inline"
     transform="translate(0,-2.5390623e-6)" />
</svg>
