<?xml version="1.0" encoding="UTF-8" standalone="no"?>
<!-- Created with Inkscape (http://www.inkscape.org/) -->

<svg
   xmlns:dc="http://purl.org/dc/elements/1.1/"
   xmlns:cc="http://creativecommons.org/ns#"
   xmlns:rdf="http://www.w3.org/1999/02/22-rdf-syntax-ns#"
   xmlns:svg="http://www.w3.org/2000/svg"
   xmlns="http://www.w3.org/2000/svg"
   xmlns:sodipodi="http://sodipodi.sourceforge.net/DTD/sodipodi-0.dtd"
   xmlns:inkscape="http://www.inkscape.org/namespaces/inkscape"
   width="744.09448"
   height="1052.3622"
   id="svg2"
   version="1.1"
   inkscape:version="0.48.4 r9939"
   sodipodi:docname="rear-garden.svg">
  <defs
     id="defs4" />
  <sodipodi:namedview
     id="base"
     pagecolor="#ffffff"
     bordercolor="#666666"
     borderopacity="1.0"
     inkscape:pageopacity="0.0"
     inkscape:pageshadow="2"
     inkscape:zoom="0.83716425"
     inkscape:cx="114.03335"
     inkscape:cy="526.18109"
     inkscape:document-units="mm"
     inkscape:current-layer="layer3"
     showgrid="false"
     inkscape:window-width="1544"
     inkscape:window-height="1028"
     inkscape:window-x="199"
     inkscape:window-y="24"
     inkscape:window-maximized="0"
     units="mm" />
  <metadata
     id="metadata7">
    <rdf:RDF>
      <cc:Work
         rdf:about="">
        <dc:format>image/svg+xml</dc:format>
        <dc:type
           rdf:resource="http://purl.org/dc/dcmitype/StillImage" />
        <dc:title />
      </cc:Work>
    </rdf:RDF>
  </metadata>
  <g
     inkscape:label="structure"
     inkscape:groupmode="layer"
     id="layer1"
     transform="translate(0,-2.5390623e-6)">
    <path
       style="fill:#a3ff9b;fill-opacity:1;stroke:none"
       d="m 177.16485,103.50352 322.44094,0 0,602.36268 -322.44094,318.8971 z"
       id="rect2985"
       inkscape:connector-curvature="0"
       sodipodi:nodetypes="ccccc" />
    <rect
       style="fill:#b4330d;fill-opacity:1;stroke:none"
       id="rect3756"
       width="187.79527"
       height="66.892487"
       x="177.16478"
       y="36.610935" />
    <rect
       style="fill:#cccccc;fill-opacity:1;stroke:none"
       id="rect3758"
       width="322.44095"
       height="82.204727"
       x="177.16484"
       y="103.50352" />
    <rect
       y="185.70825"
       x="177.16484"
       height="82.204727"
       width="193.46457"
       id="rect3760"
       style="fill:#f3a876;fill-opacity:1;stroke:none" />
    <text
       xml:space="preserve"
       style="font-size:40px;font-style:normal;font-weight:normal;line-height:125%;letter-spacing:0px;word-spacing:0px;fill:#000000;fill-opacity:1;stroke:none;font-family:Sans"
       x="562.99103"
       y="977.10815"
       id="text3781"
       sodipodi:linespacing="125%"><tspan
         sodipodi:role="line"
         id="tspan3783"
         x="562.99103"
         y="977.10815">1:100</tspan></text>
    <rect
       style="fill:#cccccc;fill-opacity:1;stroke:none"
       id="rect3785"
       width="193.46457"
       height="21.259842"
       x="177.16484"
       y="267.91296" />
    <path
       transform="translate(-217.26099,27.473701)"
       d="m 512.44424,672.50842 c 0,60.03351 -48.66677,108.70029 -108.70028,108.70029 -60.03351,0 -108.70029,-48.66678 -108.70029,-108.70029 0,-60.03351 48.66678,-108.70028 108.70029,-108.70028 60.03351,0 108.70028,48.66677 108.70028,108.70028 z"
       sodipodi:ry="108.70029"
       sodipodi:rx="108.70029"
       sodipodi:cy="672.50842"
       sodipodi:cx="403.74396"
       id="path3791"
       style="opacity:0.61316868999999996;fill:#ebed5c;fill-opacity:1;stroke:none"
       sodipodi:type="arc"
       inkscape:label="salix" />
    <path
       style="fill:#b3b3b3;fill-opacity:1;stroke:none"
       d="m 177.16485,185.70825 21.25984,0 c 0,0 1.08394,35.31666 6.09996,52.04963 3.2305,10.77664 15.15977,30.1551 15.15977,30.1551 l -42.51957,0 z"
       id="rect3793"
       inkscape:connector-curvature="0"
       sodipodi:nodetypes="ccaccc" />
    <path
       style="fill:#f3a876;fill-opacity:1;stroke:none"
       d="M 478.6875 115.1875 L 478.6875 185.71875 L 411.40625 185.71875 L 411.40625 206.96875 L 499.59375 206.96875 L 499.59375 185.71875 L 499.59375 115.1875 L 478.6875 115.1875 z "
       transform="translate(0,2.5390623e-6)"
       id="rect3796" />
    <rect
       y="103.50342"
       x="295.16486"
       height="17.007874"
       width="31.889763"
       id="rect3065"
       style="fill:#b3b3b3;fill-opacity:1;stroke:none" />
    <rect
       style="fill:#999999;fill-opacity:1;stroke:none"
       id="rect3067"
       width="31.889763"
       height="8.5039368"
       x="295.16486"
       y="103.50342" />
    <rect
       style="fill:#800000;fill-opacity:1;stroke:none"
       id="rect3069"
       width="170.07874"
       height="2.8346457"
       x="200.55067"
       y="185.70825" />
    <rect
       style="fill:none;fill-opacity:1;stroke:#000000;stroke-opacity:1;stroke-width:0.9992126;stroke-miterlimit:4;stroke-dasharray:none"
       id="rect3077"
       width="68.740158"
       height="43.582676"
       x="301.88925"
       y="224.33031" />
    <rect
       y="598.01526"
       x="579.46014"
       height="88.58268"
       width="70.157478"
       id="rect3087"
       style="display:inline;fill:#c87137;fill-opacity:1;stroke:none"
       transform="matrix(0.88398012,0.4675245,-0.4675245,0.88398012,0,-2.5390623e-6)" />
    <path
       inkscape:label="apple tree"
       transform="matrix(0.39551068,0,0,0.39551068,100.50149,172.77571)"
       d="m 303.40522,357.15811 c 0,29.6869 -24.06599,53.75289 -53.75289,53.75289 -29.6869,0 -53.75289,-24.06599 -53.75289,-53.75289 0,-29.6869 24.06599,-53.75289 53.75289,-53.75289 29.6869,0 53.75289,24.06599 53.75289,53.75289 z"
       sodipodi:ry="53.752892"
       sodipodi:rx="53.752892"
       sodipodi:cy="357.15811"
       sodipodi:cx="249.65233"
       id="path3091"
       style="display:inline;fill:#e5e55c;fill-opacity:1;stroke:none"
       sodipodi:type="arc">
      <title
         id="title3093">apple tree</title>
    </path>
    <path
       sodipodi:type="arc"
       style="opacity:0.61316868999999996;fill:#d2ea5d;fill-opacity:1;stroke:none"
       id="path3789"
       sodipodi:cx="403.74396"
       sodipodi:cy="672.50842"
       sodipodi:rx="118.25636"
       sodipodi:ry="118.25636"
       d="m 522.00032,672.50842 c 0,65.31119 -52.94518,118.25637 -118.25636,118.25637 -65.31119,0 -118.25637,-52.94518 -118.25637,-118.25637 0,-65.31118 52.94518,-118.25636 118.25637,-118.25636 65.31118,0 118.25636,52.94518 118.25636,118.25636 z"
       transform="translate(8.7390094,27.473701)" />
    <path
       sodipodi:type="arc"
       style="fill:#eda29a;fill-opacity:1;stroke:none;display:inline"
       id="path3780"
       sodipodi:cx="249.65233"
       sodipodi:cy="357.15811"
       sodipodi:rx="53.752892"
       sodipodi:ry="53.752892"
       d="m 303.40522,357.15811 c 0,29.6869 -24.06599,53.75289 -53.75289,53.75289 -29.6869,0 -53.75289,-24.06599 -53.75289,-53.75289 0,-29.6869 24.06599,-53.75289 53.75289,-53.75289 29.6869,0 53.75289,24.06599 53.75289,53.75289 z"
       transform="matrix(0.39551068,0,0,0.39551068,105.27952,311.33872)"
       inkscape:label="apple tree">
      <title
         id="title3782">apple tree</title>
    </path>
    <path
       sodipodi:type="arc"
       style="display:inline;fill:#76d776;fill-opacity:1;stroke:none"
       id="path3059"
       sodipodi:cx="249.65233"
       sodipodi:cy="357.15811"
       sodipodi:rx="53.752892"
       sodipodi:ry="53.752892"
       d="m 303.40522,357.15811 c 0,29.6869 -24.06599,53.75289 -53.75289,53.75289 -29.6869,0 -53.75289,-24.06599 -53.75289,-53.75289 0,-29.6869 24.06599,-53.75289 53.75289,-53.75289 29.6869,0 53.75289,24.06599 53.75289,53.75289 z"
       transform="translate(-22.695666,35.473698)"
       inkscape:label="apple tree" />
    <path
       inkscape:label="apple tree"
       transform="translate(-31.057227,133.42341)"
       d="m 283.09857,357.15811 c 0,18.47185 -14.97439,33.44624 -33.44624,33.44624 -18.47185,0 -33.44624,-14.97439 -33.44624,-33.44624 0,-18.47185 14.97439,-33.44624 33.44624,-33.44624 18.47185,0 33.44624,14.97439 33.44624,33.44624 z"
       sodipodi:ry="33.446243"
       sodipodi:rx="33.446243"
       sodipodi:cy="357.15811"
       sodipodi:cx="249.65233"
       id="path3784"
       style="fill:#76d776;fill-opacity:1;stroke:none;display:inline"
       sodipodi:type="arc">
      <title
         id="title3786">apple tree</title>
    </path>
    <rect
       style="fill:#cccccc;fill-opacity:1;stroke:none;display:inline"
       id="rect3798"
       width="90.354332"
       height="112.67716"
       x="406.10089"
       y="322.08658" />
  </g>
  <g
     inkscape:groupmode="layer"
     id="layer3"
     inkscape:label="Movable"
     style="display:inline">
    <path
       sodipodi:type="arc"
       style="fill:#333333;fill-opacity:1;stroke:none;display:inline"
       id="path3083"
       sodipodi:cx="249.65233"
       sodipodi:cy="357.15811"
       sodipodi:rx="53.752892"
       sodipodi:ry="53.752892"
       d="m 303.40522,357.15811 a 53.752892,53.752892 0 1 1 -107.50578,0 53.752892,53.752892 0 1 1 107.50578,0 z"
       transform="matrix(0.23071456,0,0,0.26367378,424.24507,140.94431)"
       inkscape:label="apple tree">
      <title
         id="title3085">apple tree</title>
    </path>
    <rect
       transform="translate(0,-5.0781246e-6)"
       style="fill:#800000;fill-opacity:1;stroke:none;display:inline"
       id="rect3089"
       width="8.1141729"
       height="53.149605"
       x="224.59048"
       y="518.56946" />
    <path
       inkscape:label="apple tree"
       transform="matrix(0.26367378,0,0,0.26367378,208.74935,596.05213)"
       d="m 303.40522,357.15811 a 53.752892,53.752892 0 1 1 -107.50578,0 53.752892,53.752892 0 1 1 107.50578,0 z"
       sodipodi:ry="53.752892"
       sodipodi:rx="53.752892"
       sodipodi:cy="357.15811"
       sodipodi:cx="249.65233"
       id="path3079"
       style="fill:#333333;fill-opacity:1;stroke:none;display:inline"
       sodipodi:type="arc">
      <title
         id="title3081">apple tree</title>
    </path>
    <rect
       style="fill:#b3b3b3;fill-opacity:1;stroke:none"
       id="rect3019"
       width="21.259842"
       height="21.259842"
       x="381.36957"
       y="341.70825" />
    <rect
       y="319.70825"
       x="381.36957"
       height="21.259842"
       width="21.259842"
       id="rect3017"
       style="fill:#b3b3b3;fill-opacity:1;stroke:none" />
    <rect
       y="363.70825"
       x="381.36957"
       height="21.259842"
       width="21.259842"
       id="rect3021"
       style="fill:#b3b3b3;fill-opacity:1;stroke:none" />
    <rect
       style="fill:#b3b3b3;fill-opacity:1;stroke:none"
       id="rect3023"
       width="21.259842"
       height="21.259842"
       x="381.36957"
       y="385.70825" />
    <rect
       transform="translate(0,-2.5390623e-6)"
       y="297.70825"
       x="421.36957"
       height="21.259842"
       width="21.259842"
       id="rect3025"
       style="fill:#b3b3b3;fill-opacity:1;stroke:none" />
    <rect
       transform="translate(0,-2.5390623e-6)"
       y="297.70825"
       x="465.36957"
       height="21.259842"
       width="21.259842"
       id="rect3029"
       style="fill:#b3b3b3;fill-opacity:1;stroke:none" />
    <rect
       transform="translate(0,-2.5390623e-6)"
       style="fill:#b3b3b3;fill-opacity:1;stroke:none"
       id="rect3027"
       width="21.259842"
       height="21.259842"
       x="443.36957"
       y="297.70825" />
    <rect
       transform="translate(0,-2.5390623e-6)"
       style="fill:#b3b3b3;fill-opacity:1;stroke:none"
       id="rect3071"
       width="21.259842"
       height="21.259842"
       x="349.36957"
       y="185.70825" />
  </g>
  <g
     inkscape:groupmode="layer"
     id="layer2"
     inkscape:label="proposed"
     style="display:inline"
     transform="translate(0,-2.5390623e-6)" />
</svg>
